<?xml version="1.0" encoding="utf-8"?>
<!-- Generator: Adobe Illustrator 25.4.0, SVG Export Plug-In . SVG Version: 6.00 Build 0)  -->
<svg version="1.1" id="Capa_1" xmlns="http://www.w3.org/2000/svg" xmlns:xlink="http://www.w3.org/1999/xlink" x="0px" y="0px"
	 viewBox="0 0 512 512" style="enable-background:new 0 0 512 512;" xml:space="preserve">
<style type="text/css">
	.st0{fill:#626262;}
</style>
<path class="st0" d="M410.1,512c-104,0-207.7,0-311.6,0c0-170.7,0-341.2,0-512c36.7,0,73.4,0,110.4,0c0,66.7,0,133.4,0,200.5
	c67.2,0,134,0,201.1,0C410.1,304.5,410.1,408.2,410.1,512z M299.6,502.4c0.1-1.6,0.2-2.7,0.2-3.7c0-27.8,0-55.6,0.1-83.4
	c0-3.1-1.1-3.7-3.9-3.7c-27.8,0.1-55.6,0.1-83.4,0.1c-1.1,0-2.3,0.1-3.6,0.2c-0.1,1.5-0.2,2.7-0.2,3.8c0,27.6,0.1,55.1-0.1,82.6
	c0,3.5,1.2,4.1,4.3,4.1c27.5-0.1,55.1-0.1,82.6-0.1C296.8,502.4,298,502.4,299.6,502.4z M208.8,301.1c1.4,0.1,2.3,0.2,3.1,0.2
	c28.1,0,56.3,0,84.4,0.1c3,0,3.5-1.1,3.5-3.7c-0.1-27.7,0-55.3-0.1-83c0-1.3-0.1-2.5-0.2-4c-1.6,0-2.7,0-3.9,0
	c-27.6,0-55.1,0.1-82.7-0.1c-3.6,0-4.3,1.2-4.2,4.5c0.1,27.3,0.1,54.6,0.1,81.9C208.8,298.2,208.8,299.5,208.8,301.1z M209.2,401.6
	c30.1,0,60,0,90.1,0c0-30.1,0-60.1,0-90.2c-30.1,0-60,0-90.1,0C209.2,341.5,209.2,371.5,209.2,401.6z M198.7,9.9
	c-30.4,0-60.3,0-90.2,0c0,30.3,0,60.2,0,90.1c30.3,0,60.3,0,90.2,0C198.7,69.8,198.7,39.9,198.7,9.9z M198.6,200.6
	c0-30.3,0-60.3,0-90.3c-30.2,0-60.2,0-90.2,0c0,30.2,0,60.2,0,90.3C138.6,200.6,168.5,200.6,198.6,200.6z M198.7,210.9
	c-30.4,0-60.4,0-90.3,0c0,30.2,0,60.1,0,90.2c30.2,0,60.2,0,90.3,0C198.7,271,198.7,241,198.7,210.9z M400.3,210.8
	c-30.3,0-60.2,0-90.3,0c0,30.2,0,60.2,0,90.3c30.2,0,60.1,0,90.3,0C400.3,271,400.3,241.1,400.3,210.8z M108.4,311.3
	c0,30.4,0,60.3,0,90.3c30.3,0,60.2,0,90.2,0c0-30.2,0-60.2,0-90.3C168.5,311.3,138.6,311.3,108.4,311.3z M400.2,401.6
	c0-30.2,0-60.1,0-90.3c-30.2,0-60.2,0-90.3,0c0,30.2,0,60.1,0,90.3C340.1,401.6,370.1,401.6,400.2,401.6z M198.6,502.2
	c0-30.4,0-60.3,0-90.3c-30.2,0-60.2,0-90.2,0c0,30.2,0,60.2,0,90.3C138.6,502.2,168.5,502.2,198.6,502.2z M310,411.8
	c0,30.3,0,60.3,0,90.3c30.2,0,60.2,0,90.2,0c0-30.2,0-60.2,0-90.3C370,411.8,340.2,411.8,310,411.8z"/>
</svg>
