<?xml version="1.0" encoding="utf-8"?>
<!-- Generator: Adobe Illustrator 25.4.0, SVG Export Plug-In . SVG Version: 6.00 Build 0)  -->
<svg version="1.1" id="Capa_1" xmlns="http://www.w3.org/2000/svg" xmlns:xlink="http://www.w3.org/1999/xlink" x="0px" y="0px"
	 viewBox="0 0 512 512" style="enable-background:new 0 0 512 512;" xml:space="preserve">
<style type="text/css">
	.st0{fill:#5F6368;}
</style>
<path class="st0" d="M407.7,385c0-10.9-7-20.2-16.7-23.6l-171.8-62.5l155-61.7l0,0c9.2-3.7,15.8-12.7,15.8-23.2
	c0-11.4-7.7-21-18.1-24l0,0l-215.5-61.8c0,0-0.1,0-0.1,0l-0.4-0.1l0,0c-2.2-0.6-4.5-1-6.9-1c-13.8,0-25,11.2-25,25
	c0,11.4,7.7,21,18.1,24l0,0l145.7,41.8l-148,58.9l0,0c-9.2,3.7-15.8,12.7-15.8,23.2c0,10.9,7,20.2,16.7,23.6l167.8,61l-167.7,59.1
	c-9.8,3.4-16.8,12.7-16.8,23.6c0,13.8,11.2,25,25,25c3.1,0,6-0.6,8.7-1.6l233.2-82.1C400.7,405.2,407.7,395.9,407.7,385z"/>
</svg>
