<?xml version="1.0" encoding="utf-8"?>
<!-- Generator: Adobe Illustrator 25.4.0, SVG Export Plug-In . SVG Version: 6.00 Build 0)  -->
<svg version="1.1" id="Capa_1" xmlns="http://www.w3.org/2000/svg" xmlns:xlink="http://www.w3.org/1999/xlink" x="0px" y="0px"
	 viewBox="0 0 512 512" style="enable-background:new 0 0 512 512;" xml:space="preserve">
<style type="text/css">
	.st0{fill:#626262;}
</style>
<path class="st0" d="M43.2,264.6c0-39.7,0-79.5,0-119.2c0-5.9,2.4-10,7.5-12.9c40-22.4,80-44.8,120-67.3
	c25.2-14.2,50.5-28.3,75.6-42.5c4.8-2.7,9.3-2.5,14,0.2c26.1,14.7,52.2,29.3,78.3,43.9c40.6,22.8,81.1,45.6,121.8,68.3
	c5.8,3.3,8.5,7.7,8.5,14.4c-0.1,78.7-0.1,157.4,0,236.1c0,7.9-3.2,12.9-9.8,16.5c-40.9,22.4-81.8,44.8-122.7,67.2
	c-24.2,13.3-48.4,26.5-72.5,39.8c-4.9,2.7-9.4,2.7-14.3,0.1c-54-29.6-108-59.1-162-88.7c-11.3-6.2-22.5-12.6-34-18.5
	c-7.5-3.8-10.2-9.9-10.3-17.5c-0.2-19.1-0.1-38.2-0.1-57.3C43.1,306.4,43.1,285.5,43.2,264.6C43.2,264.6,43.2,264.6,43.2,264.6z
	 M265.4,54.3c0,2.3,0,3.8,0,5.2c0,68.6,0,137.2,0,205.8c0,0.6-0.2,1.2,0,1.7c0.6,1.3,1.2,3,2.2,3.6c19.6,11,39.2,21.8,58.8,32.6
	c37.9,20.9,75.8,41.7,113.7,62.6c1,0.6,2.1,0.9,3.7,1.6c0.1-2.1,0.2-3.7,0.2-5.2c0-39.2,0-78.4,0-117.5c0-28.6,0-57.3,0.1-85.9
	c0-3.2-0.8-5.2-3.8-6.6c-3.9-1.9-7.7-4.2-11.5-6.3c-52.6-29.5-105.2-59-157.8-88.5C269.5,56.4,267.8,55.6,265.4,54.3z M68.1,364.5
	c1.7-0.8,2.8-1.3,3.7-1.8c18.5-10.2,36.9-20.4,55.4-30.6c36.7-20.2,73.5-40.4,110.3-60.5c2.7-1.5,3.7-3.3,3.7-6.4
	c-0.2-12-0.2-24-0.2-36c0-56.6,0-113.2,0-169.8c0-1.4-0.2-2.8-0.4-4.7c-1.6,0.8-2.7,1.2-3.8,1.8c-55.1,30.9-110.1,61.7-165.2,92.5
	c-2.9,1.6-3.7,3.6-3.7,6.7c0.2,35.7,0.2,71.4,0.2,107.1c0,32.4-0.1,64.9-0.1,97.3C67.8,361.5,68,362.6,68.1,364.5z M82.7,389.3
	c1.6,1,2.5,1.7,3.4,2.2c55.7,30.5,111.5,61.1,167.2,91.7c2.4,1.3,4.1,1.3,6.5,0c55.2-30.3,110.5-60.6,165.7-90.9
	c1-0.6,1.9-1.5,2.8-2.2c-1-0.8-1.8-1.8-2.9-2.4c-21.9-12.1-43.8-24.1-65.7-36.2c-33.5-18.4-67-36.9-100.4-55.4
	c-2.6-1.5-4.7-1.7-7.4-0.1c-7.6,4.5-15.5,8.7-23.2,12.9c-42.7,23.5-85.5,47-128.2,70.5C94.8,382.6,89.1,385.7,82.7,389.3z"/>
</svg>
