<?xml version="1.0" encoding="utf-8"?>
<!-- Generator: Adobe Illustrator 25.4.0, SVG Export Plug-In . SVG Version: 6.00 Build 0)  -->
<svg version="1.1" id="Capa_1" xmlns="http://www.w3.org/2000/svg" xmlns:xlink="http://www.w3.org/1999/xlink" x="0px" y="0px"
	 viewBox="0 0 512 512" style="enable-background:new 0 0 512 512;" xml:space="preserve">
<style type="text/css">
	.st0{fill-rule:evenodd;clip-rule:evenodd;fill:#FFFFFF;stroke:#FFFFFF;stroke-width:8;}
	.st1{fill-rule:evenodd;clip-rule:evenodd;fill:#5F6368;}
	.st2{fill-rule:evenodd;clip-rule:evenodd;fill:#FFFFFF;}
	.st3{fill:none;stroke:#5F6368;stroke-width:50;stroke-linecap:round;stroke-linejoin:round;}
</style>
<g id="layer1">
	<path id="rect4006" class="st0" d="M57.7,109.4h395.8c28.8,0,52.2,23.4,52.2,52.2V452c0,28.8-23.3,52.2-52.2,52.2H57.7
		c-28.8,0-52.2-23.4-52.2-52.2V161.6C5.5,132.8,28.9,109.4,57.7,109.4z"/>
	<path id="rect2248" class="st1" d="M58.6,109.4h394c29.3,0,53,23.4,53,52.2V452c0,28.8-23.7,52.2-53,52.2h-394
		c-29.3,0-53-23.4-53-52.2V161.6C5.5,132.8,29.3,109.4,58.6,109.4z"/>
	<rect id="rect3123" x="58.2" y="162" class="st2" width="394.8" height="289.5"/>
	<path id="path4000" class="st3" d="M45,164.3l184.2,181.9c14.8,15.8,24.8,15.6,40.1,0.4l197.8-187"/>
</g>
</svg>
