<?xml version="1.0" encoding="utf-8"?>
<!-- Generator: Adobe Illustrator 25.4.0, SVG Export Plug-In . SVG Version: 6.00 Build 0)  -->
<svg version="1.1" id="Capa_1" xmlns="http://www.w3.org/2000/svg" xmlns:xlink="http://www.w3.org/1999/xlink" x="0px" y="0px"
	 viewBox="0 0 512 512" style="enable-background:new 0 0 512 512;" xml:space="preserve">
<style type="text/css">
	.st0{fill:#5F6368;}
</style>
<path class="st0" d="M358.1,357.7c0-56.3-45.8-102.1-102.1-102.1v0c-31.5-1.5-56.6-27.6-56.6-59.5c0-30,22.2-54.8,51.1-59V196
	c0,28.2,22.9,51.1,51.1,51.1c28.2,0,51.1-22.9,51.1-51h0c0,0,0,0,0,0c0,0,0,0,0,0h0c0-42.8-28.8-78.9-68.1-90.1V76.8h0
	c0-0.3,0-0.5,0-0.8c0-9.4-7.6-17-17-17c-9.4,0-17,7.6-17,17c0,0.3,0,0.5,0,0.8h0v26c-47.6,4.3-85.1,44.5-85.1,93.2
	c0,50.6,40.4,92,90.7,93.6c37.5,0,68.1,30.5,68.1,68.1c0,31.7-21.7,58.4-51.1,65.9v-65.5h0c0-32.9-26.7-59.6-59.6-59.6
	c-32.7,0-59.3,26.5-59.6,59.1h0c0,0.1,0,0.1,0,0.2c0,0.1,0,0.1,0,0.2h0c0.2,50.3,37,92.2,85.1,100.3v35.9c0,9.4,7.6,17,17,17
	s17-7.6,17-17v-35.9C321.3,450.2,358.1,408.2,358.1,357.7z M318.5,196c0,9.4-7.6,17-17,17c-9.4,0-17-7.6-17-17v-53.8
	C304.6,151.8,318.5,172.3,318.5,196z M187.9,358c0.1-14,11.5-25.4,25.5-25.4c14.1,0,25.5,11.5,25.5,25.5h0v65.5
	C209.7,416.1,188,389.5,187.9,358z"/>
</svg>
