<?xml version="1.0" encoding="utf-8"?>
<!-- Generator: Adobe Illustrator 25.4.0, SVG Export Plug-In . SVG Version: 6.00 Build 0)  -->
<svg version="1.1" id="Capa_1" xmlns="http://www.w3.org/2000/svg" xmlns:xlink="http://www.w3.org/1999/xlink" x="0px" y="0px"
	 viewBox="0 0 512 512" style="enable-background:new 0 0 512 512;" xml:space="preserve">
<style type="text/css">
	.st0{fill:#626262;}
</style>
<path class="st0" d="M255.6,512C113,511.4-1.2,396.5,0,253.9C1.3,112.1,117-0.8,258,0c141.2,0.8,254.7,116.4,253.9,259
	C511.1,398.3,395.3,512.6,255.6,512z M261,88.8c-87.8-2.2-166.9,64.8-171.7,159.6c-4.7,91.9,65.6,170.7,159.1,175.7
	c92.2,4.9,173-66.8,176.1-162.6C427.4,173.6,359.4,92.1,261,88.8z M414.9,81.2c-23-20.6-48.8-36.2-77.6-46.7c-0.5,0.7-0.8,1.1-1,1.5
	c-5.4,14.9-10.7,29.8-16.1,44.6c-1,2.6,0.7,2.8,2.2,3.4c15.4,6,29.9,13.7,43.2,23.5c5.1,3.8,10,7.9,15.1,12
	C392,106.8,403.4,94,414.9,81.2z M137.3,115.8c5.7-4.3,10.9-8.5,16.5-12.3c13.4-8.9,27.6-16.5,43.1-21.4c1.8-0.6,2.6-1.2,1.8-3.5
	c-2.8-8-5.2-16.2-7.9-24.2c-2.4-7.4-4.9-14.7-7.4-22.3c-29.5,9.7-55.8,24.5-79.3,44.4C115.2,89.8,126.2,102.7,137.3,115.8z
	 M438.5,224.3c4.1,24.1,3.5,47.7-1.2,71.1c2.6,0.5,4.4,0.8,6.3,1.2c13.9,3,27.7,6,41.5,8.9c1.5,0.3,2.8,0.3,3.1-1.7
	c1.4-10.8,3.6-21.6,4.1-32.4c0.6-12.4-0.1-24.9-0.6-37.4c-0.3-6.2-1.5-12.4-2.4-18.9C472.3,218.2,455.6,221.2,438.5,224.3z
	 M75.3,289.9c-4.3-24-4-47.4,0.9-71c-16.9-3.6-33.6-7.1-50.2-10.7c-6.5,25-7,67.3-1.1,90.7C41.5,295.9,58.2,292.9,75.3,289.9z
	 M375.9,397.6c-0.7,0.4-1,0.5-1.3,0.7c-16.9,14-35.7,24.8-56.4,32.2c-4.5,1.6-4.4,1.7-2.8,6.4c2.7,8.3,5.3,16.6,8,24.8
	c2.1,6.4,4.3,12.7,6.5,19.3c29.4-9.7,55.6-24.3,79-44.1C397.8,423.7,386.9,410.8,375.9,397.6z M99.6,432
	c11.7,14.2,64.8,45.7,77.8,46.2c5.7-15.8,11.4-31.7,16.9-47.1c-10.9-5.5-21.7-10.3-31.8-16.4c-10.1-6.1-19.4-13.4-29.3-20.4
	C122.2,406.7,111,419.3,99.6,432z M420.4,364c0,9.1,6.6,16,15.4,16c8.6,0,15.9-7,15.9-15.4c0-8.9-7.2-16.2-16-16
	C427,348.7,420.4,355.4,420.4,364z M436.1,135.6c-7.8-1-16.2,7.4-15.9,15.5c0.3,8.7,7.2,15.8,16.3,15.8c7.7,0,15-7.4,15.1-15.4
	C451.7,142.5,445,135.6,436.1,135.6z M244.8,46.6c0,8.8,6.7,15.6,15.5,15.6c8.7,0,15.7-6.8,15.8-15.4c0.2-8.7-7.1-16-15.8-15.9
	C251.6,31.1,244.8,37.9,244.8,46.6z M56.9,364c-0.1,9.1,6.4,15.9,15.4,16c8.5,0.1,15.5-6.7,15.6-15.2c0.1-8.9-6.5-16.1-14.9-16.3
	C64,348.3,57,355,56.9,364z M253.5,450.6c-8.8,0-15.8,7-15.8,15.7c0,8.5,7,15.5,15.7,15.6c8.4,0.1,15.8-7.3,15.7-15.7
	C269,457.6,262,450.6,253.5,450.6z M72.4,135.6c-6.8-0.8-15.6,5.6-15.7,15.4c0,8.6,6.8,15.6,15.4,15.8c8.6,0.2,16-7.1,15.9-15.8
	C88,142.6,81,135.6,72.4,135.6z"/>
<path class="st0" d="M257,412.1c-86.2,0.3-157.1-70.7-155.8-157.8c1.3-84.7,70.5-153.8,156.4-153.4c86.1,0.4,155.7,70.9,154.9,156.9
	C411.7,344.3,341.6,411.9,257,412.1z M263.9,317.5c0-9.6,0.3-18.7-0.1-27.8c-0.2-4.5-1.3-9.3-3.2-13.3c-5.3-11.1-18.2-16.7-30-13.8
	c-12.1,3-20.8,13.8-20.8,26.1c-0.1,20.7,14.6,39.5,35,44.5c2.9,0.7,3.3,1.9,3.2,4.3c-0.1,3.7-0.2,7.4,0,11.1
	c0.1,1.8,0.5,3.8,1.3,5.4c1.7,3.1,5.6,4.3,9.4,3.1c3.4-1.1,5.1-3.9,5.1-7.4c0.1-5.2,0-10.4,0-15.4c3.3-1.1,6.2-1.8,8.9-2.9
	c20.7-8.4,32-28.8,28.8-49.4c-3.6-23-21.7-38.3-45.2-39.4c-12.1-0.6-21.9-8.4-24.9-20c-2.9-11.2,2.2-23.3,12.7-29.2
	c2.6-1.5,5.7-2.3,9.1-3.5c0,9.2,0,17.4,0,25.6c0,2,0,4.1,0.4,6c2.9,12,14.6,19.8,26.4,17.7c12.1-2.1,20.6-13.3,19.3-25.6
	c-1.8-18-11.2-30.4-28.1-37c-2-0.8-2.4-1.7-2.4-3.6c0.1-3.2,0.1-6.4,0-9.6c-0.1-5.4-2.9-8.3-8-8.2c-5.1,0-7.6,2.7-7.6,8.1
	c0,3.6,0,7.3,0,10.9c-1.1,0.2-1.7,0.3-2.2,0.4c-20.4,3.4-35.7,20.4-36.2,40.5c-0.6,23.5,18.2,43,41.7,43.6
	c12.9,0.3,22.2,6.7,27.2,18.5c5,11.7,2.6,22.6-5.8,32.1C274.4,313.2,269.8,316.1,263.9,317.5z"/>
<path class="st0" d="M247.7,317.6c-9.9-3.1-16.5-9.2-20.1-18.5c-1.7-4.5-2.8-9.1-1.4-13.9c1.5-4.8,6.1-7.8,11.6-7.4
	c4.8,0.3,9.6,4,9.7,8.8C248,296.7,247.7,306.9,247.7,317.6z"/>
<path class="st0" d="M269,192.8c9.3,4.5,15.1,14.3,14.5,23.7c-0.2,3.9-3.1,6.8-6.8,7c-3.8,0.2-7.5-2.7-7.6-6.5
	C268.9,209.1,269,201.1,269,192.8z"/>
</svg>
